<?xml version="1.0" encoding="UTF-8" standalone="no"?>
<!DOCTYPE svg PUBLIC "-//W3C//DTD SVG 1.1//EN" "http://www.w3.org/Graphics/SVG/1.1/DTD/svg11.dtd">
<svg width="100%" height="100%" viewBox="0 0 1642 711" version="1.1" xmlns="http://www.w3.org/2000/svg" xmlns:xlink="http://www.w3.org/1999/xlink" xml:space="preserve" xmlns:serif="http://www.serif.com/" style="fill-rule:evenodd;clip-rule:evenodd;stroke-linejoin:round;stroke-miterlimit:2;">
    <g transform="matrix(11.11162,0,0,11.11162,-8611.482814,-14819.784883)">
        <g>
            <path d="M798.486,1392.621L798.486,1361.054L786.694,1361.054L786.694,1356.83L815.063,1356.83L815.063,1361.054L803.222,1361.054L803.222,1392.621L798.486,1392.621Z" style="fill:rgb(0,39,255);fill-rule:nonzero;"/>
            <path d="M819.994,1392.621L819.994,1356.83L835.863,1356.83C839.054,1356.83 841.479,1357.152 843.139,1357.795C844.799,1358.437 846.126,1359.573 847.118,1361.2C848.111,1362.828 848.608,1364.626 848.608,1366.596C848.608,1369.135 847.786,1371.275 846.142,1373.017C844.498,1374.758 841.959,1375.865 838.525,1376.337C839.778,1376.939 840.73,1377.533 841.381,1378.119C842.765,1379.389 844.075,1380.976 845.312,1382.88L851.537,1392.621L845.58,1392.621L840.844,1385.175C839.46,1383.026 838.321,1381.383 837.426,1380.243C836.531,1379.104 835.729,1378.306 835.021,1377.851C834.313,1377.395 833.593,1377.078 832.861,1376.899C832.323,1376.785 831.445,1376.728 830.224,1376.728L824.731,1376.728L824.731,1392.621L819.994,1392.621ZM824.731,1372.626L834.911,1372.626C837.076,1372.626 838.769,1372.402 839.989,1371.955C841.21,1371.507 842.138,1370.791 842.773,1369.806C843.407,1368.822 843.725,1367.751 843.725,1366.596C843.725,1364.903 843.11,1363.511 841.882,1362.421C840.653,1361.331 838.712,1360.785 836.059,1360.785L824.731,1360.785L824.731,1372.626Z" style="fill:rgb(0,39,255);fill-rule:nonzero;"/>
            <g transform="matrix(0.075749,0,0,0.064103,758.608388,1226.350944)">
                <path d="M1048.732,2593.817L1379.372,1753.937L1514.586,2203.972L1379.372,1948.727L1048.732,2593.817" style="fill:rgb(40,151,38);"/>
            </g>
            <g transform="matrix(0.075749,0,0,0.075749,736.307009,1207.380967)">
                <path d="M1642.64,2445.462L1642.64,1972.964L1705.167,1972.964L1705.167,2389.703L1937.871,2389.703L1937.871,2445.462L1642.64,2445.462Z" style="fill:rgb(255,174,0);fill-rule:nonzero;"/>
            </g>
            <g transform="matrix(0.075749,0,0,0.075749,736.458506,1207.380967)">
                <path d="M2009.745,2445.462L2009.745,1972.964L2072.272,1972.964L2072.272,2389.703L2304.975,2389.703L2304.975,2445.462L2009.745,2445.462Z" style="fill:rgb(255,174,0);fill-rule:nonzero;"/>
            </g>
        </g>
    </g>
</svg>
